# xmcd
#
# Track frame offsets:
#	150
#	15232
#	29812
#	41870
#	57652
#	68207
#	87737
#	102697
#	124310
#	140185
#	151870
#	166420
#	186682
#
# Disc length: 2668 seconds
#
# Revision: 1
# Processed by: cddbd v1.4PL0 Copyright (c) Steve Scherf et al.
# Submitted via: EasyCDDAExtractor 5.0.7
#
DISCID=ce0a6a0d
DTITLE=Miriam Jerrels Clark - While He Is Near
DYEAR=1998
DGENRE=sacred
TTITLE0=My Savior Knows
TTITLE1=Be Thou Vision
TTITLE2=O Could I Speak The Matchless Worth
TTITLE3=While He Is Near
TTITLE4=Jesus, Savior,Pilot Me
TTITLE5=It Is Well With My Soul
TTITLE6=Amazing Grace
TTITLE7=He's Been Faithful
TTITLE8=Take My Life
TTITLE9=The Morning Trumpet
TTITLE10=God Moves In A Mysterious Way
TTITLE11=He Takes Away The Sin Of The World
TTITLE12=How Much I Owe
EXTD=
EXTT0=
EXTT1=
EXTT2=
EXTT3=
EXTT4=
EXTT5=
EXTT6=
EXTT7=
EXTT8=
EXTT9=
EXTT10=
EXTT11=
EXTT12=
PLAYORDER=
